<svg xmlns="http://www.w3.org/2000/svg" version="1.1" xmlns:xlink="http://www.w3.org/1999/xlink" xmlns:svgjs="http://svgjs.dev/svgjs" width="1000" height="199" viewBox="0 0 1000 199"><g transform="matrix(1,0,0,1,9.038259356800893,0.6079473342956163)"><svg viewBox="0 0 396 79" data-background-color="#ffffff" preserveAspectRatio="xMidYMid meet" height="199" width="1000" xmlns="http://www.w3.org/2000/svg" xmlns:xlink="http://www.w3.org/1999/xlink"><g id="tight-bounds" transform="matrix(1,0,0,1,0.2400000000000091,-0.24134592668016808)"><svg viewBox="0 0 395.52 79.48269181367417" height="79.48269181367417" width="395.52"><g><svg viewBox="0 0 462.16323735594864 92.87514705292479" height="79.48269181367417" width="395.52"><g transform="matrix(1,0,0,1,66.64323735594864,10.96196349860724)"><svg viewBox="0 0 395.52 70.95122005571031" height="70.95122005571031" width="395.52"><g><svg viewBox="0 0 395.52 70.95122005571031" height="70.95122005571031" width="395.52"><g><svg viewBox="0 0 395.52 70.95122005571031" height="70.95122005571031" width="395.52"><g transform="matrix(1,0,0,1,0,0)"><svg width="395.52" viewBox="1.9000000953674316 -35.54999923706055 269.2300109863281 48.29999923706055" height="70.95122005571031" data-palette-color="#3d9970"><path d="M1.9-9.1L1.9-9.1Q1.9-15.8 7.15-20.65 12.4-25.5 19.05-25.5L19.05-25.5Q23.2-25.5 26.3-22.55L26.3-22.55 26.3-23.7Q26.3-25.05 28.2-25.05L28.2-25.05Q28.95-25.05 29.48-24.7 30-24.35 30-23.7L30-23.7 30 0.25Q30 6.1 26.2 9.43 22.4 12.75 17.35 12.75L17.35 12.75Q13.35 12.75 10.65 11.35 7.95 9.95 7.9 6.7L7.9 6.7Q7.9 5.9 8.4 5.48 8.9 5.05 9.65 5.05L9.65 5.05Q10.45 5.05 11.03 5.5 11.6 5.95 11.6 6.65L11.6 6.65Q11.6 7.5 12.08 8.03 12.55 8.55 13.6 8.75 14.65 8.95 15.43 9 16.2 9.05 17.6 9.05L17.6 9.05Q21.15 9.05 23.73 6.9 26.3 4.75 26.3 0.6L26.3 0.6 26.3-9.55Q22.25-4.3 18.57-1.95 14.9 0.4 11 0.4L11 0.4Q7.4 0.4 4.65-2.53 1.9-5.45 1.9-9.1ZM5.5-9L5.5-9Q5.5-6.15 7.5-4.67 9.5-3.2 11.75-3.2L11.75-3.2Q14.35-3.2 17.7-5.78 21.05-8.35 23.28-11.53 25.5-14.7 25.5-16.5L25.5-16.5Q25.5-18 24.63-19.18 23.75-20.35 22.48-20.9 21.2-21.45 20.15-21.73 19.1-22 18.4-22L18.4-22Q13.5-22 9.5-18.07 5.5-14.15 5.5-9ZM35.95-1.4L35.95-1.4 35.95-23.55Q35.95-24.9 37.85-24.9L37.85-24.9Q38.6-24.9 39.12-24.55 39.65-24.2 39.65-23.55L39.65-23.55 39.65-17.3Q41.55-21.4 43.87-23.5 46.2-25.6 50.05-25.6L50.05-25.6Q52.75-25.6 55.5-24.9L55.5-24.9Q56.95-24.2 56.95-23L56.95-23Q56.95-22.15 56.6-21.8 56.25-21.45 55.45-21.35L55.45-21.35Q52.9-21.95 51.3-21.95L51.3-21.95Q47.6-21.95 44.55-18.3 41.5-14.65 39.65-8.8L39.65-8.8 39.65-1.4Q39.65-0.75 39.1-0.38 38.55 0 37.8 0L37.8 0Q35.95 0 35.95-1.4ZM58.7-13.2L58.7-13.2Q58.7-16.4 60.1-18.9 61.5-21.4 63.8-22.85 66.1-24.3 68.75-25.03 71.4-25.75 74.15-25.75L74.15-25.75Q79.05-25.75 81.75-23.63 84.45-21.5 84.45-18.4L84.45-18.4Q84.45-15.05 81.3-12.7 78.15-10.35 72.35-10.35L72.35-10.35Q67.15-10.35 62.45-11.85L62.45-11.85Q63-8.15 65.9-5.65 68.8-3.15 73.05-3.15L73.05-3.15Q75.3-3.15 77.72-3.85 80.15-4.55 81.55-5.85L81.55-5.85Q81.75-6.25 82.35-6.25L82.35-6.25Q83.05-6.25 83.85-5.63 84.65-5 84.65-4.35L84.65-4.35Q83.4-1.8 79.77-0.63 76.15 0.55 72.75 0.55L72.75 0.55Q66.6 0.55 62.65-3.5 58.7-7.55 58.7-13.2ZM62.65-15.7L62.65-15.7Q66.4-14.05 71.95-14.05L71.95-14.05Q76.3-14.05 78.55-15.43 80.8-16.8 80.8-18.5L80.8-18.5Q80.8-20 78.92-21.03 77.05-22.05 73.35-22.05L73.35-22.05Q69.35-22.05 66.67-20.28 64-18.5 62.65-15.7ZM88.49-13.2L88.49-13.2Q88.49-16.4 89.89-18.9 91.29-21.4 93.59-22.85 95.89-24.3 98.54-25.03 101.19-25.75 103.94-25.75L103.94-25.75Q108.84-25.75 111.54-23.63 114.24-21.5 114.24-18.4L114.24-18.4Q114.24-15.05 111.09-12.7 107.94-10.35 102.14-10.35L102.14-10.35Q96.94-10.35 92.24-11.85L92.24-11.85Q92.79-8.15 95.69-5.65 98.59-3.15 102.84-3.15L102.84-3.15Q105.09-3.15 107.52-3.85 109.94-4.55 111.34-5.85L111.34-5.85Q111.54-6.25 112.14-6.25L112.14-6.25Q112.84-6.25 113.64-5.63 114.44-5 114.44-4.35L114.44-4.35Q113.19-1.8 109.57-0.63 105.94 0.55 102.54 0.55L102.54 0.55Q96.39 0.55 92.44-3.5 88.49-7.55 88.49-13.2ZM92.44-15.7L92.44-15.7Q96.19-14.05 101.74-14.05L101.74-14.05Q106.09-14.05 108.34-15.43 110.59-16.8 110.59-18.5L110.59-18.5Q110.59-20 108.72-21.03 106.84-22.05 103.14-22.05L103.14-22.05Q99.14-22.05 96.47-20.28 93.79-18.5 92.44-15.7ZM119.39-1.3L119.39-1.3 119.39-23.65Q119.39-24.3 119.92-24.65 120.44-25 121.19-25L121.19-25Q123.09-25 123.09-23.65L123.09-23.65 123.09-19.7Q125.59-22.4 129.14-23.98 132.69-25.55 136.34-25.55L136.34-25.55Q141.04-25.55 144.22-22.63 147.39-19.7 147.39-15L147.39-15Q147.39-14.55 147.37-10.43 147.34-6.3 147.34-1.4L147.34-1.4Q147.34-0.75 146.79-0.38 146.24 0 145.49 0L145.49 0Q143.64 0 143.64-1.4L143.64-1.4 143.64-14.55Q143.64-18.1 141.12-20 138.59-21.9 135.89-21.9L135.89-21.9Q132.24-21.9 128.42-19.48 124.59-17.05 123.09-13.35L123.09-13.35 123.09-1.3Q123.09 0.05 121.19 0.05L121.19 0.05Q120.44 0.05 119.92-0.3 119.39-0.65 119.39-1.3ZM153.69-1.4L153.69-1.4 153.69-33.65Q153.69-35 155.59-35L155.59-35Q156.34-35 156.86-34.65 157.39-34.3 157.39-33.65L157.39-33.65 157.39-1.4Q157.39-0.75 156.84-0.38 156.29 0 155.54 0L155.54 0Q153.69 0 153.69-1.4ZM163.29-17.75L163.29-17.75Q163.29-25.4 168.81-30.48 174.34-35.55 181.84-35.55L181.84-35.55Q186.34-35.55 190.19-32.45L190.19-32.45Q190.59-32.1 190.59-31.55L190.59-31.55Q190.59-30.75 189.94-30.08 189.29-29.4 188.59-29.4L188.59-29.4Q188.09-29.4 187.74-29.75L187.74-29.75Q185.34-31.85 181.74-31.85L181.74-31.85Q175.19-31.85 171.11-27.63 167.04-23.4 167.04-17.8L167.04-17.8Q167.04-12.05 171.04-7.65 175.04-3.25 181.79-3.25L181.79-3.25Q186.19-3.25 188.94-6.4L188.94-6.4Q189.49-6.95 189.89-6.95L189.89-6.95Q190.64-6.95 191.34-6.2 192.04-5.45 192.04-4.75L192.04-4.75Q192.04-4.3 191.69-3.95L191.69-3.95Q187.84 0.45 182.04 0.45L182.04 0.45Q176.29 0.45 171.94-2.18 167.59-4.8 165.44-8.88 163.29-12.95 163.29-17.75ZM193.53-33.2L193.53-33.2Q193.53-33.95 193.88-34.48 194.23-35 194.88-35L194.88-35 219.58-35Q220.23-35 220.61-34.45 220.98-33.9 220.98-33.15L220.98-33.15Q220.98-31.3 219.58-31.3L219.58-31.3 208.78-31.3 208.78-1.4Q208.78-0.75 208.23-0.38 207.68 0 206.93 0L206.93 0Q205.08 0 205.08-1.4L205.08-1.4 205.08-31.3 194.88-31.3Q193.53-31.3 193.53-33.2ZM219.28-13.2L219.28-13.2Q219.28-16.4 220.68-18.9 222.08-21.4 224.38-22.85 226.68-24.3 229.33-25.03 231.98-25.75 234.73-25.75L234.73-25.75Q239.63-25.75 242.33-23.63 245.03-21.5 245.03-18.4L245.03-18.4Q245.03-15.05 241.88-12.7 238.73-10.35 232.93-10.35L232.93-10.35Q227.73-10.35 223.03-11.85L223.03-11.85Q223.58-8.15 226.48-5.65 229.38-3.15 233.63-3.15L233.63-3.15Q235.88-3.15 238.31-3.85 240.73-4.55 242.13-5.85L242.13-5.85Q242.33-6.25 242.93-6.25L242.93-6.25Q243.63-6.25 244.43-5.63 245.23-5 245.23-4.35L245.23-4.35Q243.98-1.8 240.36-0.63 236.73 0.55 233.33 0.55L233.33 0.55Q227.18 0.55 223.23-3.5 219.28-7.55 219.28-13.2ZM223.23-15.7L223.23-15.7Q226.98-14.05 232.53-14.05L232.53-14.05Q236.88-14.05 239.13-15.43 241.38-16.8 241.38-18.5L241.38-18.5Q241.38-20 239.51-21.03 237.63-22.05 233.93-22.05L233.93-22.05Q229.93-22.05 227.26-20.28 224.58-18.5 223.23-15.7ZM250.13-1.4L250.13-1.4 250.13-23.55Q250.13-24.9 252.03-24.9L252.03-24.9Q252.78-24.9 253.3-24.55 253.83-24.2 253.83-23.55L253.83-23.55 253.83-17.3Q255.73-21.4 258.05-23.5 260.38-25.6 264.23-25.6L264.23-25.6Q266.93-25.6 269.68-24.9L269.68-24.9Q271.13-24.2 271.13-23L271.13-23Q271.13-22.15 270.78-21.8 270.43-21.45 269.63-21.35L269.63-21.35Q267.08-21.95 265.48-21.95L265.48-21.95Q261.78-21.95 258.73-18.3 255.68-14.65 253.83-8.8L253.83-8.8 253.83-1.4Q253.83-0.75 253.28-0.38 252.73 0 251.98 0L251.98 0Q250.13 0 250.13-1.4Z" opacity="1" transform="matrix(1,0,0,1,0,0)" fill="#3d9970" class="undefined-text-0" data-fill-palette-color="primary" id="text-0"></path></svg></g></svg></g></svg></g></svg></g><g><svg viewBox="0 0 49.89335713007677 92.87514705292479" height="92.87514705292479" width="49.89335713007677"><g><svg xmlns="http://www.w3.org/2000/svg" data-name="Layer 1" viewBox="24.29827308654785 2.299999952316284 51.30345153808594 95.5" x="0" y="0" height="92.87514705292479" width="49.89335713007677" class="icon-icon-0" data-fill-palette-color="accent" id="icon-0"><g data-name="Group" fill="#3d9970" data-fill-palette-color="accent"><path data-name="Compound Path" d="M30.3 44.2H27.4a3 3 0 0 0-3.1 3.1V50A23.4 23.4 0 0 0 46.9 72.4h0.4V97.8h6V87.1A23.4 23.4 0 0 0 75.6 64.7V61.9a3 3 0 0 0-3.1-3.1H69.7a23.1 23.1 0 0 0-16.5 7.8V43.4h1.5a13 13 0 0 0 13-13v-14H61.2V2.3h-6V16.4h-10V2.3h-6V16.4H32.8v14a13 13 0 0 0 13 13h1.5v9.1A23.2 23.2 0 0 0 30.3 44.2Zm0.1 6A17.4 17.4 0 0 1 46.7 66.4 17.4 17.4 0 0 1 30.5 50.2ZM69.5 64.9A17.3 17.3 0 0 1 53.3 81.1 17.3 17.3 0 0 1 69.5 64.9ZM45.8 37.4a7 7 0 0 1-7-7v-8h23v8a7 7 0 0 1-7 7h-9Z" fill="#3d9970" data-fill-palette-color="accent"></path></g></svg></g></svg></g></svg></g><defs></defs></svg><rect width="395.52" height="79.48269181367417" fill="none" stroke="none" visibility="hidden"></rect></g></svg></g></svg>